<svg xmlns="http://www.w3.org/2000/svg" width="55.859" height="56" viewBox="0 0 55.859 56">
  <path id="Icon_awesome-chrome" data-name="Icon awesome-chrome" d="M14.81,24.217l-8.6-13.256a27.895,27.895,0,0,1,46.647,4.979L29.732,14.722A14.678,14.678,0,0,0,14.81,24.217Zm3.705,4.347a9.415,9.415,0,1,0,9.415-9.439A9.423,9.423,0,0,0,18.515,28.564ZM53.979,18.493l-15.733.813a14.832,14.832,0,0,1,.743,17.749L26.364,56.521A27.98,27.98,0,0,0,53.979,18.493ZM15.057,33.939,4.55,13.22a28.039,28.039,0,0,0,19.044,43l7.174-14.091a14.742,14.742,0,0,1-15.711-8.186Z" transform="translate(0 -0.562)" fill="#7a2ee6"/>
</svg>
