<svg xmlns="http://www.w3.org/2000/svg" xmlns:xlink="http://www.w3.org/1999/xlink" width="208" height="128" viewBox="0 0 208 128">
  <defs>
    <linearGradient id="linear-gradient" x1="0.173" y1="0.735" x2="0.975" y2="0.067" gradientUnits="objectBoundingBox">
      <stop offset="0" stop-color="#5e09bf"/>
      <stop offset="1" stop-color="#7904ff"/>
    </linearGradient>
  </defs>
  <g id="Group_1605" data-name="Group 1605" transform="translate(0.333 -0.167)">
    <g id="Group_1616" data-name="Group 1616">
      <rect id="Rectangle_330" data-name="Rectangle 330" width="208" height="128" rx="8" transform="translate(-0.333 0.167)" fill="url(#linear-gradient)"/>
      <rect id="Rectangle_332" data-name="Rectangle 332" width="176" height="5" transform="translate(15.667 110.167)" fill="#fff"/>
      <g id="_927562" data-name="927562" transform="translate(55.667 15.167)">
        <g id="Group_1607" data-name="Group 1607" transform="translate(8)">
          <g id="Group_1606" data-name="Group 1606">
            <path id="Path_578" data-name="Path 578" d="M121.393,224a22.755,22.755,0,0,0-16.948,7.536,1.739,1.739,0,1,0,2.591,2.32,19.348,19.348,0,0,1,28.713,0,1.739,1.739,0,0,0,2.591-2.32A22.755,22.755,0,0,0,121.393,224Z" transform="translate(-81.393 -175.304)" fill="#fff"/>
            <path id="Path_579" data-name="Path 579" d="M40,0A40,40,0,1,0,80,40,40.045,40.045,0,0,0,40,0Zm0,76.522A36.522,36.522,0,1,1,76.522,40,36.563,36.563,0,0,1,40,76.522Z" fill="#fff"/>
            <path id="Path_580" data-name="Path 580" d="M223.652,128a1.739,1.739,0,0,0-1.739,1.739,5.217,5.217,0,1,1-10.435,0,1.739,1.739,0,0,0-3.478,0,8.7,8.7,0,1,0,17.391,0A1.739,1.739,0,0,0,223.652,128Z" transform="translate(-162.783 -100.174)" fill="#fff"/>
            <path id="Path_581" data-name="Path 581" d="M97.391,129.739a1.739,1.739,0,0,0-3.478,0,5.217,5.217,0,0,1-10.435,0,1.739,1.739,0,0,0-3.478,0,8.7,8.7,0,1,0,17.391,0Z" transform="translate(-62.609 -100.174)" fill="#fff"/>
          </g>
        </g>
      </g>
    </g>
  </g>
</svg>
