<svg xmlns="http://www.w3.org/2000/svg" width="18" height="18" viewBox="0 0 18 18">
  <g id="Group_349" data-name="Group 349" transform="translate(-1 -1)">
    <path id="Path_61" data-name="Path 61" d="M13.2,10v3.2l2.4,1.6L18,12.88V10a8.052,8.052,0,0,0-.64-3.12,7.9,7.9,0,0,0-1.68-2.56,7.9,7.9,0,0,0-2.56-1.68,7.925,7.925,0,0,0-6.24,0A7.9,7.9,0,0,0,4.32,4.32,7.9,7.9,0,0,0,2.64,6.88a7.925,7.925,0,0,0,0,6.24,7.9,7.9,0,0,0,1.68,2.56,7.9,7.9,0,0,0,2.56,1.68,7.925,7.925,0,0,0,6.24,0" fill="none" stroke="#1a2040" stroke-miterlimit="10" stroke-width="2"/>
    <circle id="Ellipse_21" data-name="Ellipse 21" cx="3.2" cy="3.2" r="3.2" transform="translate(6.8 6.8)" fill="none" stroke="#1a2040" stroke-linejoin="round" stroke-miterlimit="10" stroke-width="2"/>
  </g>
</svg>
