<svg id="Logo" xmlns="http://www.w3.org/2000/svg" width="469.333" height="88" viewBox="0 0 469.333 88">
  <g id="Group_315" data-name="Group 315" transform="translate(120.674)">
    <path id="Path_133" data-name="Path 133" d="M442.271,315.272c0,.526-1.141,1.534-2.931,1.534H426.5c-1.79,0-2.931-1.008-2.931-1.534V282.784H412.314v32.488c0,7.052,6.364,12.79,14.187,12.79H439.34c7.823,0,14.187-5.738,14.187-12.79V282.784H442.271Z" transform="translate(-351.933 -263.25)" fill="#fff"/>
    <path id="Path_134" data-name="Path 134" d="M702.729,282.784H689.891c-7.823,0-14.187,5.738-14.187,12.791v19.7c0,7.052,6.364,12.79,14.187,12.79h12.838c7.823,0,14.187-5.738,14.187-12.79v-19.7C716.917,288.522,710.552,282.784,702.729,282.784Zm2.931,32.488c0,.526-1.141,1.534-2.931,1.534H689.891c-1.79,0-2.931-1.008-2.931-1.534v-19.7c0-.527,1.141-1.534,2.931-1.534h12.838c1.79,0,2.931,1.007,2.931,1.534Z" transform="translate(-404.289 -263.25)" fill="#fff"/>
    <path id="Path_135" data-name="Path 135" d="M571.952,258.481h-17.2a17.011,17.011,0,0,0-17.091,16.89v1.687a14.117,14.117,0,0,0,8.934,13.178l29.341,11.695a2.917,2.917,0,0,1,1.845,2.723v1.687a5.743,5.743,0,0,1-5.834,5.634h-17.2a5.743,5.743,0,0,1-5.834-5.634v-7.489H537.666v7.489a17.01,17.01,0,0,0,17.091,16.89h17.2a17.01,17.01,0,0,0,17.091-16.89v-1.687a14.117,14.117,0,0,0-8.934-13.179l-29.341-11.695a2.917,2.917,0,0,1-1.846-2.723v-1.687a5.743,5.743,0,0,1,5.834-5.633h17.2a5.743,5.743,0,0,1,5.834,5.633v7.489h11.256v-7.489A17.011,17.011,0,0,0,571.952,258.481Z" transform="translate(-376.85 -258.419)" fill="#fff"/>
    <path id="Path_136" data-name="Path 136" d="M502.016,282.784H489.177c-7.823,0-14.186,5.738-14.186,12.791v19.7c0,7.052,6.363,12.79,14.186,12.79h12.839a15.723,15.723,0,0,0,2.931-.276v9.277a2.934,2.934,0,0,1-2.931,2.931h-21.4V351.25h21.4A14.2,14.2,0,0,0,516.2,337.063V295.575C516.2,288.522,509.839,282.784,502.016,282.784Zm2.931,32.488c0,.526-1.142,1.534-2.931,1.534H489.177c-1.789,0-2.931-1.008-2.931-1.534v-19.7c0-.527,1.142-1.534,2.931-1.534h12.839c1.789,0,2.931,1.007,2.931,1.534v19.7Z" transform="translate(-364.392 -263.25)" fill="#fff"/>
    <path id="Path_137" data-name="Path 137" d="M640.054,277.938H627.215a14.034,14.034,0,0,0-2.932.309V258.4H613.028v64.812h11.256V292.272a3.011,3.011,0,0,1,2.932-3.078h12.839a3.01,3.01,0,0,1,2.931,3.078v30.882h11.255V292.272A14.277,14.277,0,0,0,640.054,277.938Z" transform="translate(-391.83 -258.404)" fill="#fff"/>
    <path id="Path_138" data-name="Path 138" d="M749.636,290.729v-1.535h15.771V277.937H749.636V258.4H738.38v52.022c0,7.052,6.364,12.79,14.186,12.79h12.84V311.96h-12.84c-1.789,0-2.931-1.008-2.931-1.534v-19.7Z" transform="translate(-416.747 -258.404)" fill="#fff"/>
    <path id="Path_139" data-name="Path 139" d="M371.446,258.4H336.953v64.749h34.493a16.9,16.9,0,0,0,16.883-16.884v-4.235a16.813,16.813,0,0,0-4.312-11.256,16.816,16.816,0,0,0,4.312-11.256v-4.234A16.9,16.9,0,0,0,371.446,258.4Zm0,11.256a5.634,5.634,0,0,1,5.628,5.629v4.234a5.634,5.634,0,0,1-5.628,5.629H348.209V269.66Zm5.628,36.61a5.634,5.634,0,0,1-5.628,5.628H348.209V296.407h23.237a5.634,5.634,0,0,1,5.628,5.628Z" transform="translate(-336.953 -258.404)" fill="#fff"/>
  </g>
  <g id="Group_316" data-name="Group 316">
    <path id="Path_140" data-name="Path 140" d="M251.658,305.572a16.083,16.083,0,0,0-11.923-11.923v7.718h-7.36v-7.718a16.081,16.081,0,0,0-11.922,11.923h7.717v7.359h-7.717a16.08,16.08,0,0,0,11.922,11.923v-7.717h7.36v7.717a16.082,16.082,0,0,0,11.923-11.923h-7.717v-7.359Z" transform="translate(-190.978 -265.252)" fill="#fff"/>
    <path id="Path_141" data-name="Path 141" d="M244.385,279.3a23.448,23.448,0,0,1,19.422,19.421h8.177v-8.6L284.7,277.407a3.679,3.679,0,0,0,0-5.2l-13.8-13.8-5.2,5.2,11.2,11.2-8.6,8.6-11.2-11.2a3.677,3.677,0,0,0-2.6-1.078h-10.12Z" transform="translate(-195.628 -258.404)" fill="#fff"/>
    <path id="Path_142" data-name="Path 142" d="M271.984,326.176v-8.6h-8.177A23.448,23.448,0,0,1,244.385,337v8.177H254.5a3.68,3.68,0,0,0,2.6-1.077l11.2-11.2,8.6,8.6-11.2,11.2,5.2,5.2,13.8-13.8a3.68,3.68,0,0,0,0-5.2Z" transform="translate(-195.628 -269.902)" fill="#fff"/>
    <path id="Path_143" data-name="Path 143" d="M225.267,337a23.446,23.446,0,0,1-19.421-19.422h-8.177v8.6L184.947,338.9a3.682,3.682,0,0,0,0,5.2l13.8,13.8,5.2-5.2-11.2-11.2,8.6-8.6,11.2,11.2a3.682,3.682,0,0,0,2.6,1.077h10.119Z" transform="translate(-183.87 -269.902)" fill="#fff"/>
    <path id="Path_144" data-name="Path 144" d="M197.669,290.129v8.6h8.177A23.448,23.448,0,0,1,225.267,279.3v-8.177H215.148a3.679,3.679,0,0,0-2.6,1.078l-11.2,11.2-8.6-8.6,11.2-11.2-5.2-5.2-13.8,13.8a3.681,3.681,0,0,0,0,5.2Z" transform="translate(-183.87 -258.404)" fill="#fff"/>
  </g>
</svg>
