<svg id="Logo" xmlns="http://www.w3.org/2000/svg" width="256" height="48" viewBox="0 0 256 48">
  <g id="Group_315" data-name="Group 315" transform="translate(65.822)">
    <path id="Path_133" data-name="Path 133" d="M428.654,300.5c0,.287-.622.837-1.6.837h-7c-.976,0-1.6-.55-1.6-.837V282.784h-6.14V300.5c0,3.847,3.471,6.976,7.739,6.976h7c4.267,0,7.738-3.13,7.738-6.976V282.784h-6.14Z" transform="translate(-379.379 -272.129)" fill="#1a2040"/>
    <path id="Path_134" data-name="Path 134" d="M690.445,282.784h-7c-4.267,0-7.739,3.13-7.739,6.977V300.5c0,3.847,3.471,6.976,7.739,6.976h7c4.267,0,7.738-3.13,7.738-6.976V289.761C698.184,285.914,694.712,282.784,690.445,282.784Zm1.6,17.721c0,.287-.622.837-1.6.837h-7c-.976,0-1.6-.55-1.6-.837V289.761c0-.288.622-.837,1.6-.837h7c.976,0,1.6.549,1.6.837Z" transform="translate(-527.659 -272.129)" fill="#1a2040"/>
    <path id="Path_135" data-name="Path 135" d="M556.367,258.481h-9.379a9.279,9.279,0,0,0-9.322,9.213v.92a7.7,7.7,0,0,0,4.873,7.188l16,6.379a1.591,1.591,0,0,1,1.007,1.485v.92a3.133,3.133,0,0,1-3.182,3.073h-9.379a3.133,3.133,0,0,1-3.182-3.073V280.5h-6.14v4.085a9.278,9.278,0,0,0,9.322,9.213h9.379a9.278,9.278,0,0,0,9.322-9.213v-.92a7.7,7.7,0,0,0-4.873-7.189l-16-6.379a1.591,1.591,0,0,1-1.007-1.485v-.92a3.133,3.133,0,0,1,3.182-3.073h9.379a3.132,3.132,0,0,1,3.182,3.073v4.085h6.14v-4.085A9.279,9.279,0,0,0,556.367,258.481Z" transform="translate(-449.948 -258.447)" fill="#1a2040"/>
    <path id="Path_136" data-name="Path 136" d="M489.732,282.784h-7c-4.267,0-7.738,3.13-7.738,6.977V300.5c0,3.847,3.471,6.976,7.738,6.976h7a8.576,8.576,0,0,0,1.6-.15v5.06a1.6,1.6,0,0,1-1.6,1.6H478.061v6.14h11.671a7.747,7.747,0,0,0,7.738-7.739v-22.63C497.47,285.914,494,282.784,489.732,282.784Zm1.6,17.721c0,.287-.623.837-1.6.837h-7c-.976,0-1.6-.55-1.6-.837V289.761c0-.288.623-.837,1.6-.837h7c.976,0,1.6.549,1.6.837V300.5Z" transform="translate(-414.664 -272.129)" fill="#1a2040"/>
    <path id="Path_137" data-name="Path 137" d="M627.77,269.059h-7a7.656,7.656,0,0,0-1.6.169V258.4h-6.139v35.352h6.139V276.878a1.642,1.642,0,0,1,1.6-1.679h7a1.642,1.642,0,0,1,1.6,1.679v16.845h6.139V276.878A7.788,7.788,0,0,0,627.77,269.059Z" transform="translate(-492.375 -258.404)" fill="#1a2040"/>
    <path id="Path_138" data-name="Path 138" d="M744.519,276.036V275.2h8.6v-6.14h-8.6V258.4H738.38V286.78c0,3.847,3.471,6.976,7.738,6.976h7v-6.139h-7c-.976,0-1.6-.55-1.6-.837V276.036Z" transform="translate(-562.944 -258.404)" fill="#1a2040"/>
    <path id="Path_139" data-name="Path 139" d="M355.767,258.4H336.953v35.318h18.814a9.22,9.22,0,0,0,9.209-9.21V282.2a9.171,9.171,0,0,0-2.352-6.139,9.172,9.172,0,0,0,2.352-6.14v-2.31A9.22,9.22,0,0,0,355.767,258.4Zm0,6.139a3.073,3.073,0,0,1,3.07,3.07v2.31a3.073,3.073,0,0,1-3.07,3.07H343.092v-8.45Zm3.07,19.969a3.073,3.073,0,0,1-3.07,3.07H343.092v-8.45h12.675a3.073,3.073,0,0,1,3.07,3.07Z" transform="translate(-336.953 -258.404)" fill="#1a2040"/>
  </g>
  <g id="Group_316" data-name="Group 316">
    <path id="Path_140" data-name="Path 140" d="M237.474,300.152a8.772,8.772,0,0,0-6.5-6.5v4.21h-4.015v-4.21a8.772,8.772,0,0,0-6.5,6.5h4.209v4.014h-4.209a8.771,8.771,0,0,0,6.5,6.5v-4.209h4.015v4.209a8.772,8.772,0,0,0,6.5-6.5h-4.209v-4.014Z" transform="translate(-204.376 -278.16)" fill="#18d992"/>
    <path id="Path_141" data-name="Path 141" d="M244.385,269.8A12.79,12.79,0,0,1,254.979,280.4h4.46v-4.688l6.939-6.939a2.007,2.007,0,0,0,0-2.839l-7.527-7.527-2.839,2.839,6.107,6.107-4.688,4.688-6.107-6.107a2.006,2.006,0,0,0-1.419-.588h-5.52Z" transform="translate(-217.79 -258.404)" fill="#18d992"/>
    <path id="Path_142" data-name="Path 142" d="M259.439,322.269v-4.688h-4.46a12.79,12.79,0,0,1-10.594,10.594v4.46h5.52a2.007,2.007,0,0,0,1.419-.588l6.107-6.108,4.688,4.688-6.107,6.107,2.839,2.839,7.527-7.527a2.007,2.007,0,0,0,0-2.839Z" transform="translate(-217.79 -291.574)" fill="#18d992"/>
    <path id="Path_143" data-name="Path 143" d="M206.45,328.175a12.789,12.789,0,0,1-10.593-10.594H191.4v4.688l-6.939,6.939a2.008,2.008,0,0,0,0,2.839l7.527,7.527,2.839-2.839-6.107-6.107,4.688-4.688,6.107,6.108a2.008,2.008,0,0,0,1.42.588h5.519Z" transform="translate(-183.87 -291.574)" fill="#18d992"/>
    <path id="Path_144" data-name="Path 144" d="M191.4,275.708V280.4h4.46A12.79,12.79,0,0,1,206.45,269.8v-4.46h-5.519a2.007,2.007,0,0,0-1.42.588l-6.107,6.107-4.688-4.688,6.107-6.107-2.839-2.839-7.527,7.527a2.008,2.008,0,0,0,0,2.839Z" transform="translate(-183.87 -258.404)" fill="#18d992"/>
  </g>
</svg>
