<svg xmlns="http://www.w3.org/2000/svg" xmlns:xlink="http://www.w3.org/1999/xlink" width="58" height="58" viewBox="0 0 58 58">
  <defs>
    <filter id="Ellipse_41" x="0" y="0" width="58" height="58" filterUnits="userSpaceOnUse">
      <feOffset dy="3" input="SourceAlpha"/>
      <feGaussianBlur stdDeviation="3" result="blur"/>
      <feFlood flood-opacity="0.239"/>
      <feComposite operator="in" in2="blur"/>
      <feComposite in="SourceGraphic"/>
    </filter>
  </defs>
  <g id="Group_1618" data-name="Group 1618" transform="translate(-15 -906)">
    <g transform="matrix(1, 0, 0, 1, 15, 906)" filter="url(#Ellipse_41)">
      <circle id="Ellipse_41-2" data-name="Ellipse 41" cx="20" cy="20" r="20" transform="translate(9 6)" fill="#18d992"/>
    </g>
    <g id="Settings" transform="translate(32 920)">
      <circle id="Ellipse_40" data-name="Ellipse 40" cx="3" cy="3" r="3" transform="translate(9 9)" fill="none" stroke="#1a2040" stroke-linejoin="round" stroke-width="2"/>
      <rect id="Rectangle_219" data-name="Rectangle 219" width="24" height="24" fill="none"/>
      <g id="Group_351" data-name="Group 351">
        <path id="Path_158" data-name="Path 158" d="M19,10h3v4H19l-.636,1.536,2.121,2.121-2.828,2.828-2.121-2.121L14,19v3H10V19l-1.536-.636L6.343,20.485,3.515,17.657l2.121-2.121L5,14H2V10H5l.636-1.536L3.515,6.343,6.343,3.515,8.464,5.636,10,5V2h4V5l1.536.636,2.121-2.121,2.828,2.828L18.364,8.464Z" fill="none" stroke="#1a2040" stroke-miterlimit="10" stroke-width="2"/>
      </g>
    </g>
  </g>
</svg>
