<svg xmlns="http://www.w3.org/2000/svg" xmlns:xlink="http://www.w3.org/1999/xlink" width="472" height="776" viewBox="0 0 472 776">
  <defs>
    <clipPath id="clip-path">
      <rect id="Rectangle_223" data-name="Rectangle 223" width="472" height="776" transform="translate(1448 112)" fill="#fff" stroke="#707070" stroke-width="1"/>
    </clipPath>
  </defs>
  <g id="Mask_Group_12" data-name="Mask Group 12" transform="translate(-1448 -112)" clip-path="url(#clip-path)">
    <g id="Group_363" data-name="Group 363" transform="translate(1338.63 -146.404)">
      <g id="Group_2" data-name="Group 2" transform="translate(183.87 258.404)">
        <path id="Path_8" data-name="Path 8" d="M548.92,444.089V370.582H459.69a32.455,32.455,0,0,0-22.949,9.507L338,478.825,262.21,403.03l98.736-98.736L315.056,258.4,193.371,380.089a32.456,32.456,0,0,0,0,45.89L305.556,538.159v75.993h73.529C392.89,527.018,461.828,458.015,548.92,444.089Z" transform="translate(-183.87 -258.404)" fill="#eee5fc"/>
        <path id="Path_9" data-name="Path 9" d="M414.219,614.152h73.535V538.159L599.933,425.979a32.458,32.458,0,0,0,0-45.89L478.247,258.4l-45.889,45.891L531.1,403.03l-75.788,75.794-98.743-98.736a32.429,32.429,0,0,0-22.942-9.507H244.385v73.507C331.476,458.015,400.414,527.018,414.219,614.152Z" transform="translate(185.567 -258.404)" fill="#eee5fc"/>
        <path id="Path_10" data-name="Path 10" d="M379.185,317.609H305.556v75.6L193.371,505.391a32.456,32.456,0,0,0,0,45.891L315.056,672.966l45.891-45.9L262.21,528.332,338,452.538l98.736,98.744a32.478,32.478,0,0,0,22.949,9.5h89.23V487.132C462.013,473.234,393.2,404.489,379.185,317.609Z" transform="translate(-183.87 103.034)" fill="#eee5fc"/>
        <path id="Path_11" data-name="Path 11" d="M487.755,393.205v-75.6H414.127A205.311,205.311,0,0,1,244.385,487.132V560.78h89.236a32.452,32.452,0,0,0,22.942-9.5l98.743-98.744L531.1,528.332l-98.737,98.736,45.889,45.9L599.933,551.282a32.458,32.458,0,0,0,0-45.891Z" transform="translate(185.567 103.034)" fill="#eee5fc"/>
        <path id="Path_12" data-name="Path 12" d="M389.266,566.05A140.372,140.372,0,0,0,492.848,462.668H458.219v-64.9h34.757A140.358,140.358,0,0,0,389.266,293.848v34.693h-64.9V293.848A140.358,140.358,0,0,0,220.653,397.772h34.829v64.9h-34.7A140.382,140.382,0,0,0,324.364,566.05v-34.7h64.9Z" transform="translate(40.687 -42.023)" fill="#eee5fc"/>
      </g>
    </g>
  </g>
</svg>
